<?xml version="1.0" encoding="UTF-8" standalone="no"?><!DOCTYPE svg PUBLIC "-//W3C//DTD SVG 1.1//EN" "http://www.w3.org/Graphics/SVG/1.1/DTD/svg11.dtd"><svg width="100%" height="100%" viewBox="0 0 500 500" version="1.1" xmlns="http://www.w3.org/2000/svg" xmlns:xlink="http://www.w3.org/1999/xlink" xml:space="preserve" xmlns:serif="http://www.serif.com/" style="fill-rule:evenodd;clip-rule:evenodd;stroke-linejoin:round;stroke-miterlimit:2;"><rect x="0" y="0" width="500" height="500" style="fill:#fffefa;"/><g transform="matrix(7.397533,0,0,7.397533,-4485.367912,-5939.966248)"><g><g transform="matrix(50,0,0,50,611.602983,855.273378)"><path d="M0.282,-0.5265c0.0343,0 0.0657,0.0053 0.0943,0.016c0.0285,0.0107 0.053,0.0262 0.0735,0.0465c0.0205,0.0203 0.0365,0.0453 0.048,0.0748c0.0115,0.0295 0.0172,0.0629 0.0172,0.1003c0,0.0117 -0.0005,0.0212 -0.0015,0.0285c-0.001,0.0073 -0.0028,0.0132 -0.0055,0.0175c-0.0027,0.0043 -0.0062,0.0073 -0.0107,0.009c-0.0045,0.0017 -0.0103,0.0025 -0.0173,0.0025l-0.299,0c0.005,0.0433 0.0182,0.0747 0.0395,0.0943c0.0213,0.0195 0.0488,0.0293 0.0825,0.0293c0.018,0 0.0335,-0.0022 0.0465,-0.0065c0.013,-0.0043 0.0246,-0.0092 0.0347,-0.0145c0.0102,-0.0053 0.0195,-0.0102 0.028,-0.0145c0.0085,-0.0043 0.0174,-0.0065 0.0267,-0.0065c0.0123,0 0.0217,0.0045 0.028,0.0135l0.045,0.0555c-0.016,0.0183 -0.0333,0.0333 -0.0518,0.0448c-0.0185,0.0115 -0.0375,0.0205 -0.057,0.027c-0.0195,0.0065 -0.039,0.011 -0.0585,0.0135c-0.0195,0.0025 -0.0381,0.0037 -0.0558,0.0037c-0.0363,0 -0.0704,-0.0059 -0.1022,-0.0178c-0.0318,-0.0118 -0.0597,-0.0294 -0.0835,-0.0527c-0.0238,-0.0233 -0.0427,-0.0523 -0.0565,-0.087c-0.0138,-0.0347 -0.0207,-0.075 -0.0207,-0.121c0,-0.0347 0.0059,-0.0675 0.0178,-0.0985c0.0118,-0.031 0.0288,-0.0582 0.051,-0.0815c0.0222,-0.0233 0.049,-0.0418 0.0805,-0.0555c0.0315,-0.0137 0.0671,-0.0205 0.1068,-0.0205Zm0.003,0.107c-0.0297,0 -0.0528,0.0084 -0.0695,0.0252c-0.0167,0.0168 -0.0277,0.0411 -0.033,0.0727l0.1935,0c0,-0.0123 -0.0016,-0.0243 -0.0047,-0.036c-0.0032,-0.0117 -0.0083,-0.0221 -0.0155,-0.0312c-0.0072,-0.0092 -0.0166,-0.0166 -0.0282,-0.0223c-0.0117,-0.0057 -0.0258,-0.0085 -0.0425,-0.0085Z" style="fill:#0752c4;fill-rule:nonzero;"/></g><g transform="matrix(50,0,0,50,638.802983,855.273378)"><path d="M0.215,-0.7485l0,0.4195l0.023,0c0.0097,0 0.0171,-0.0013 0.0222,-0.004c0.0052,-0.0027 0.0101,-0.0075 0.0148,-0.0145l0.098,-0.146c0.0057,-0.0087 0.0124,-0.015 0.0202,-0.019c0.0078,-0.004 0.0178,-0.006 0.0297,-0.006l0.142,0l-0.134,0.1845c-0.0063,0.0087 -0.0132,0.0163 -0.0207,0.023c-0.0075,0.0067 -0.0156,0.0127 -0.0242,0.018c0.015,0.0113 0.028,0.0263 0.039,0.045l0.146,0.248l-0.14,-0c-0.0117,-0 -0.0217,-0.0019 -0.0302,-0.0057c-0.0085,-0.0038 -0.0154,-0.0106 -0.0207,-0.0203l-0.098,-0.1835c-0.0047,-0.0083 -0.0095,-0.0138 -0.0145,-0.0163c-0.005,-0.0025 -0.0125,-0.0038 -0.0225,-0.0038l-0.03,0l0,0.2295l-0.155,-0l0,-0.7485l0.155,0Z" style="fill:#0752c4;fill-rule:nonzero;"/></g></g></g></svg>