<?xml version="1.0" encoding="UTF-8" standalone="no"?><!DOCTYPE svg PUBLIC "-//W3C//DTD SVG 1.1//EN" "http://www.w3.org/Graphics/SVG/1.1/DTD/svg11.dtd"><svg width="100%" height="100%" viewBox="0 0 288 288" version="1.1" xmlns="http://www.w3.org/2000/svg" xmlns:xlink="http://www.w3.org/1999/xlink" xml:space="preserve" xmlns:serif="http://www.serif.com/" style="fill-rule:evenodd;clip-rule:evenodd;stroke-linejoin:round;stroke-miterlimit:2;"><rect x="0" y="0" width="288" height="288" style="fill:#404040;"/><g><path d="M165.187,207.342c-7.086,6.628 -14.479,10.222 -22.18,10.782c-7.7,0.56 -15.18,-3.04 -22.439,-10.801l-20.83,-22.27c-7.259,-7.761 -10.431,-15.549 -9.516,-23.363c0.915,-7.815 4.915,-15.036 12.001,-21.664l63.265,-59.175c7.423,-6.943 15.064,-10.611 22.922,-11.002c7.858,-0.391 15.417,3.294 22.676,11.054l20.83,22.27c7.259,7.761 10.352,15.464 9.28,23.11c-1.073,7.646 -5.321,14.941 -12.744,21.884l-63.265,59.175Z" style="fill:#8b5c02;fill-rule:nonzero;"/><path d="M143.452,207.342c-7.086,6.628 -14.479,10.222 -22.18,10.782c-7.7,0.56 -15.18,-3.04 -22.439,-10.801l-20.83,-22.27c-7.259,-7.761 -10.431,-15.549 -9.516,-23.363c0.915,-7.815 4.915,-15.036 12.001,-21.664l63.265,-59.175c7.423,-6.943 15.064,-10.611 22.922,-11.002c7.858,-0.391 15.417,3.294 22.676,11.054l20.83,22.27c7.259,7.761 10.352,15.464 9.28,23.11c-1.073,7.646 -5.321,14.941 -12.744,21.884l-63.265,59.175Z" style="fill:#daa404;fill-rule:nonzero;"/><path d="M121.716,207.342c-7.086,6.628 -14.479,10.222 -22.18,10.782c-7.7,0.56 -15.18,-3.04 -22.439,-10.801l-20.83,-22.27c-7.259,-7.761 -10.431,-15.549 -9.516,-23.363c0.915,-7.815 4.915,-15.036 12.001,-21.664l63.265,-59.175c7.423,-6.943 15.064,-10.611 22.922,-11.002c7.858,-0.391 15.417,3.294 22.676,11.054l20.83,22.27c7.259,7.761 10.352,15.464 9.28,23.11c-1.073,7.646 -5.321,14.941 -12.744,21.884l-63.265,59.175Z" style="fill:#f2cb0c;fill-rule:nonzero;"/></g></svg>