<?xml version="1.0" encoding="UTF-8" standalone="no"?><!DOCTYPE svg PUBLIC "-//W3C//DTD SVG 1.1//EN" "http://www.w3.org/Graphics/SVG/1.1/DTD/svg11.dtd"><svg width="100%" height="100%" viewBox="0 0 288 288" version="1.1" xmlns="http://www.w3.org/2000/svg" xmlns:xlink="http://www.w3.org/1999/xlink" xml:space="preserve" xmlns:serif="http://www.serif.com/" style="fill-rule:evenodd;clip-rule:evenodd;stroke-linejoin:round;stroke-miterlimit:2;"><rect x="0" y="0" width="288" height="288" style="fill:#404040;"/><g><path d="M53.808,145.08c5.696,0 10.208,2.128 13.536,6.384c3.328,4.256 4.992,10.064 4.992,17.424c0,8.32 -1.888,14.752 -5.664,19.296c-3.776,4.544 -9.088,6.816 -15.936,6.816c-6.016,0 -10.752,-2.784 -14.208,-8.352l-1.728,4.8c-0.832,2.112 -2.208,3.168 -4.128,3.168l-1.92,0c-1.344,0 -2.48,-0.448 -3.408,-1.344c-0.928,-0.896 -1.392,-2.048 -1.392,-3.456l0,-54.048l-1.44,0c-1.344,0 -2.432,-0.352 -3.264,-1.056c-0.832,-0.704 -1.248,-1.792 -1.248,-3.264l0,-4.224c0,-1.472 0.416,-2.544 1.248,-3.216c0.832,-0.672 1.92,-1.008 3.264,-1.008l11.904,0c1.344,0 2.464,0.448 3.36,1.344c0.896,0.896 1.344,2.048 1.344,3.456l0,26.88c1.216,-2.88 3.152,-5.2 5.808,-6.96c2.656,-1.76 5.616,-2.64 8.88,-2.64Zm-5.568,37.44c2.752,0 4.88,-1.152 6.384,-3.456c1.504,-2.304 2.256,-5.536 2.256,-9.696c0,-3.712 -0.704,-6.608 -2.112,-8.688c-1.408,-2.08 -3.392,-3.12 -5.952,-3.12c-2.752,0 -5.056,1.248 -6.912,3.744c-1.856,2.496 -2.784,5.568 -2.784,9.216l0,8.352c1.152,1.152 2.528,2.048 4.128,2.688c1.6,0.64 3.264,0.96 4.992,0.96Z" style="fill:#f2cb0c;fill-rule:nonzero;"/><path d="M76.176,194.04c-1.344,0 -2.432,-0.336 -3.264,-1.008c-0.832,-0.672 -1.248,-1.744 -1.248,-3.216l0,-4.224c0,-1.472 0.416,-2.56 1.248,-3.264c0.832,-0.704 1.92,-1.056 3.264,-1.056l1.44,0l0,-22.464l-1.44,0c-1.344,0 -2.432,-0.352 -3.264,-1.056c-0.832,-0.704 -1.248,-1.792 -1.248,-3.264l0,-4.224c0,-1.472 0.416,-2.544 1.248,-3.216c0.832,-0.672 1.92,-1.008 3.264,-1.008l11.904,0c1.344,0 2.464,0.448 3.36,1.344c0.896,0.896 1.344,2.048 1.344,3.456l0,30.432l1.44,0c1.408,0 2.528,0.352 3.36,1.056c0.832,0.704 1.248,1.792 1.248,3.264l0,4.224c0,1.472 -0.416,2.544 -1.248,3.216c-0.832,0.672 -1.952,1.008 -3.36,1.008l-18.048,0Z" style="fill:#f2cb0c;fill-rule:nonzero;"/><path d="M87.71,141.126c-0.982,0.918 -2.006,1.416 -3.072,1.493c-1.067,0.078 -2.103,-0.421 -3.108,-1.496l-2.885,-3.085c-1.006,-1.075 -1.445,-2.154 -1.318,-3.236c0.127,-1.082 0.681,-2.083 1.662,-3.001l8.763,-8.197c1.028,-0.962 2.087,-1.47 3.175,-1.524c1.089,-0.054 2.136,0.456 3.141,1.531l2.885,3.085c1.006,1.075 1.434,2.142 1.285,3.201c-0.149,1.059 -0.737,2.07 -1.765,3.031l-8.763,8.197Z" style="fill:#8b5c02;fill-rule:nonzero;"/><path d="M84.238,141.126c-0.982,0.918 -2.006,1.416 -3.072,1.493c-1.067,0.078 -2.103,-0.421 -3.108,-1.496l-2.885,-3.085c-1.006,-1.075 -1.445,-2.154 -1.318,-3.236c0.127,-1.082 0.681,-2.083 1.662,-3.001l8.763,-8.197c1.028,-0.962 2.087,-1.47 3.175,-1.524c1.089,-0.054 2.136,0.456 3.141,1.531l2.885,3.085c1.006,1.075 1.434,2.142 1.285,3.201c-0.149,1.059 -0.737,2.07 -1.765,3.031l-8.763,8.197Z" style="fill:#daa404;fill-rule:nonzero;"/><path d="M146.256,146.04c1.408,0 2.528,0.336 3.36,1.008c0.832,0.672 1.248,1.744 1.248,3.216l0,4.224c0,1.472 -0.416,2.56 -1.248,3.264c-0.832,0.704 -1.952,1.056 -3.36,1.056l-1.44,0l0,31.872c0,8.448 -2.272,14.96 -6.816,19.536c-4.544,4.576 -10.944,6.864 -19.2,6.864c-6.208,0 -11.104,-1.056 -14.688,-3.168c-3.584,-2.112 -5.376,-5.024 -5.376,-8.736c0,-2.176 0.736,-3.952 2.208,-5.328c1.472,-1.376 3.36,-2.064 5.664,-2.064c1.984,0 3.728,0.608 5.232,1.824c1.504,1.216 2.416,2.752 2.736,4.608c0.832,0.256 2.176,0.384 4.032,0.384c3.584,0 6.32,-1.072 8.208,-3.216c1.888,-2.144 2.832,-5.232 2.832,-9.264l0,-6.72c-1.216,2.88 -3.152,5.2 -5.808,6.96c-2.656,1.76 -5.584,2.64 -8.784,2.64c-5.696,0 -10.224,-2.128 -13.584,-6.384c-3.36,-4.256 -5.04,-10.064 -5.04,-17.424c0,-8.32 1.888,-14.752 5.664,-19.296c3.776,-4.544 9.12,-6.816 16.032,-6.816c5.696,0 10.24,2.528 13.632,7.584l0.96,-3.456c0.32,-1.216 0.816,-2.048 1.488,-2.496c0.672,-0.448 1.552,-0.672 2.64,-0.672l9.408,0Zm-26.208,36.48c2.688,0 4.96,-1.248 6.816,-3.744c1.856,-2.496 2.784,-5.568 2.784,-9.216l0,-8.352c-1.088,-1.152 -2.432,-2.048 -4.032,-2.688c-1.6,-0.64 -3.264,-0.96 -4.992,-0.96c-2.752,0 -4.896,1.152 -6.432,3.456c-1.536,2.304 -2.304,5.536 -2.304,9.696c-0,3.776 0.72,6.688 2.16,8.736c1.44,2.048 3.44,3.072 6,3.072Z" style="fill:#f2cb0c;fill-rule:nonzero;"/><path d="M53.808,220.08c5.696,0 10.208,2.128 13.536,6.384c3.328,4.256 4.992,10.064 4.992,17.424c0,8.32 -1.888,14.752 -5.664,19.296c-3.776,4.544 -9.088,6.816 -15.936,6.816c-6.016,0 -10.752,-2.784 -14.208,-8.352l-1.728,4.8c-0.832,2.112 -2.208,3.168 -4.128,3.168l-1.92,0c-1.344,0 -2.48,-0.448 -3.408,-1.344c-0.928,-0.896 -1.392,-2.048 -1.392,-3.456l0,-54.048l-1.44,0c-1.344,0 -2.432,-0.352 -3.264,-1.056c-0.832,-0.704 -1.248,-1.792 -1.248,-3.264l0,-4.224c0,-1.472 0.416,-2.544 1.248,-3.216c0.832,-0.672 1.92,-1.008 3.264,-1.008l11.904,0c1.344,0 2.464,0.448 3.36,1.344c0.896,0.896 1.344,2.048 1.344,3.456l0,26.88c1.216,-2.88 3.152,-5.2 5.808,-6.96c2.656,-1.76 5.616,-2.64 8.88,-2.64Zm-5.568,37.44c2.752,0 4.88,-1.152 6.384,-3.456c1.504,-2.304 2.256,-5.536 2.256,-9.696c0,-3.712 -0.704,-6.608 -2.112,-8.688c-1.408,-2.08 -3.392,-3.12 -5.952,-3.12c-2.752,0 -5.056,1.248 -6.912,3.744c-1.856,2.496 -2.784,5.568 -2.784,9.216l0,8.352c1.152,1.152 2.528,2.048 4.128,2.688c1.6,0.64 3.264,0.96 4.992,0.96Z" style="fill:#daa404;fill-rule:nonzero;"/><path d="M95.28,270c-7.616,0 -13.52,-2.128 -17.712,-6.384c-4.192,-4.256 -6.288,-10.256 -6.288,-18c0,-8 2.208,-14.256 6.624,-18.768c4.416,-4.512 10.528,-6.768 18.336,-6.768c7.616,0 13.504,2.128 17.664,6.384c4.16,4.256 6.24,10.224 6.24,17.904c0,8 -2.208,14.272 -6.624,18.816c-4.416,4.544 -10.496,6.816 -18.24,6.816Zm0.096,-12.48c3.2,0 5.552,-1.04 7.056,-3.12c1.504,-2.08 2.256,-5.36 2.256,-9.84c0,-4.096 -0.704,-7.12 -2.112,-9.072c-1.408,-1.952 -3.584,-2.928 -6.528,-2.928c-3.008,0 -5.312,1.088 -6.912,3.264c-1.6,2.176 -2.4,5.376 -2.4,9.6c0,3.968 0.736,6.976 2.208,9.024c1.472,2.048 3.616,3.072 6.432,3.072Z" style="fill:#daa404;fill-rule:nonzero;"/><path d="M142.8,270c-7.616,0 -13.52,-2.128 -17.712,-6.384c-4.192,-4.256 -6.288,-10.256 -6.288,-18c0,-8 2.208,-14.256 6.624,-18.768c4.416,-4.512 10.528,-6.768 18.336,-6.768c7.616,0 13.504,2.128 17.664,6.384c4.16,4.256 6.24,10.224 6.24,17.904c0,8 -2.208,14.272 -6.624,18.816c-4.416,4.544 -10.496,6.816 -18.24,6.816Zm0.096,-12.48c3.2,0 5.552,-1.04 7.056,-3.12c1.504,-2.08 2.256,-5.36 2.256,-9.84c0,-4.096 -0.704,-7.12 -2.112,-9.072c-1.408,-1.952 -3.584,-2.928 -6.528,-2.928c-3.008,0 -5.312,1.088 -6.912,3.264c-1.6,2.176 -2.4,5.376 -2.4,9.6c0,3.968 0.736,6.976 2.208,9.024c1.472,2.048 3.616,3.072 6.432,3.072Z" style="fill:#daa404;fill-rule:nonzero;"/><path d="M216.528,256.272c1.344,0 2.432,0.352 3.264,1.056c0.832,0.704 1.248,1.792 1.248,3.264l0,4.224c0,1.472 -0.416,2.544 -1.248,3.216c-0.832,0.672 -1.92,1.008 -3.264,1.008l-11.04,0c-0.64,0 -1.264,-0.16 -1.872,-0.48c-0.608,-0.32 -1.104,-0.736 -1.488,-1.248l-15.84,-21.792l0,10.752l1.44,0c1.344,0 2.432,0.352 3.264,1.056c0.832,0.704 1.248,1.792 1.248,3.264l0,4.224c0,1.472 -0.416,2.544 -1.248,3.216c-0.832,0.672 -1.92,1.008 -3.264,1.008l-18.048,0c-1.408,0 -2.528,-0.336 -3.36,-1.008c-0.832,-0.672 -1.248,-1.744 -1.248,-3.216l0,-4.224c0,-1.472 0.416,-2.56 1.248,-3.264c0.832,-0.704 1.952,-1.056 3.36,-1.056l1.44,0l0,-45.504l-1.44,0c-1.408,0 -2.528,-0.352 -3.36,-1.056c-0.832,-0.704 -1.248,-1.792 -1.248,-3.264l0,-4.224c0,-1.472 0.416,-2.544 1.248,-3.216c0.832,-0.672 1.952,-1.008 3.36,-1.008l11.808,0c1.344,0 2.48,0.448 3.408,1.344c0.928,0.896 1.392,2.048 1.392,3.456l0,40.416l7.68,-6.336c2.56,-2.048 5.152,-3.072 7.776,-3.072l-5.088,0c-1.344,0 -2.432,-0.352 -3.264,-1.056c-0.832,-0.704 -1.248,-1.792 -1.248,-3.264l0,-4.224c0,-1.472 0.416,-2.544 1.248,-3.216c0.832,-0.672 1.92,-1.008 3.264,-1.008l19.2,0c1.344,0 2.432,0.336 3.264,1.008c0.832,0.672 1.248,1.744 1.248,3.216l0,4.224c0,1.472 -0.416,2.56 -1.248,3.264c-0.832,0.704 -1.92,1.056 -3.264,1.056l-2.688,0l-10.848,8.64l10.08,13.824l4.128,0Z" style="fill:#daa404;fill-rule:nonzero;"/><path d="M80.766,141.126c-0.982,0.918 -2.006,1.416 -3.072,1.493c-1.067,0.078 -2.103,-0.421 -3.108,-1.496l-2.885,-3.085c-1.006,-1.075 -1.445,-2.154 -1.318,-3.236c0.127,-1.082 0.681,-2.083 1.662,-3.001l8.763,-8.197c1.028,-0.962 2.087,-1.47 3.175,-1.524c1.089,-0.054 2.136,0.456 3.141,1.531l2.885,3.085c1.006,1.075 1.434,2.142 1.285,3.201c-0.149,1.059 -0.737,2.07 -1.765,3.031l-8.763,8.197Z" style="fill:#f2cb0c;fill-rule:nonzero;"/></g></svg>