<?xml version="1.0" encoding="UTF-8" standalone="no"?>
<!DOCTYPE svg PUBLIC "-//W3C//DTD SVG 1.1//EN" "http://www.w3.org/Graphics/SVG/1.1/DTD/svg11.dtd">
<svg width="100%" height="100%" viewBox="0 0 2678 504" version="1.1" xmlns="http://www.w3.org/2000/svg" xmlns:xlink="http://www.w3.org/1999/xlink" xml:space="preserve" xmlns:serif="http://www.serif.com/" style="fill-rule:evenodd;clip-rule:evenodd;stroke-linejoin:round;stroke-miterlimit:2;">
    <g transform="matrix(0.535773,0,0,0.535773,-455.532015,-469.784886)">
        <g>
            <g transform="matrix(1007.129629,0,0,1007.129629,824.047187,1630.671506)">
                <path d="M0.282,-0.5265C0.3163,-0.5265 0.3478,-0.5212 0.3763,-0.5105C0.4047,-0.4998 0.4292,-0.4843 0.4497,-0.464C0.4703,-0.4437 0.4863,-0.4188 0.4978,-0.3892C0.5093,-0.3598 0.515,-0.3263 0.515,-0.289C0.515,-0.2773 0.5145,-0.2678 0.5135,-0.2605C0.5125,-0.2532 0.5107,-0.2473 0.508,-0.243C0.5053,-0.2387 0.5018,-0.2357 0.4973,-0.234C0.4928,-0.2323 0.487,-0.2315 0.48,-0.2315L0.181,-0.2315C0.186,-0.1882 0.1992,-0.1568 0.2205,-0.1373C0.2418,-0.1178 0.2693,-0.108 0.303,-0.108C0.321,-0.108 0.3365,-0.1102 0.3495,-0.1145C0.3625,-0.1188 0.3741,-0.1237 0.3842,-0.129C0.3944,-0.1343 0.4038,-0.1392 0.4123,-0.1435C0.4207,-0.1478 0.4297,-0.15 0.439,-0.15C0.4513,-0.15 0.4607,-0.1455 0.467,-0.1365L0.512,-0.081C0.496,-0.0627 0.4788,-0.0477 0.4602,-0.0362C0.4418,-0.0247 0.4228,-0.0158 0.4032,-0.0092C0.3838,-0.0028 0.3643,0.0018 0.3448,0.0043C0.3252,0.0067 0.3067,0.008 0.289,0.008C0.2527,0.008 0.2186,0.0021 0.1867,-0.0097C0.1549,-0.0216 0.1271,-0.0392 0.1033,-0.0625C0.0794,-0.0858 0.0606,-0.1148 0.0467,-0.1495C0.0329,-0.1842 0.026,-0.2245 0.026,-0.2705C0.026,-0.3052 0.0319,-0.338 0.0438,-0.369C0.0556,-0.4 0.0726,-0.4272 0.0948,-0.4505C0.1169,-0.4738 0.1438,-0.4923 0.1753,-0.506C0.2067,-0.5197 0.2423,-0.5265 0.282,-0.5265ZM0.285,-0.4195C0.2553,-0.4195 0.2322,-0.4111 0.2155,-0.3942C0.1988,-0.3774 0.1878,-0.3532 0.1825,-0.3215L0.376,-0.3215C0.376,-0.3338 0.3744,-0.3458 0.3713,-0.3575C0.3681,-0.3692 0.3629,-0.3796 0.3558,-0.3887C0.3486,-0.3979 0.3392,-0.4053 0.3275,-0.411C0.3158,-0.4167 0.3017,-0.4195 0.285,-0.4195Z" style="fill:rgb(7,82,196);fill-rule:nonzero;"/>
            </g>
            <g transform="matrix(1007.129629,0,0,1007.129629,1371.925705,1630.671506)">
                <path d="M0.215,-0.7485L0.215,-0.329L0.238,-0.329C0.2477,-0.329 0.2551,-0.3303 0.2602,-0.333C0.2654,-0.3357 0.2703,-0.3405 0.275,-0.3475L0.373,-0.4935C0.3787,-0.5022 0.3854,-0.5085 0.3932,-0.5125C0.4011,-0.5165 0.411,-0.5185 0.423,-0.5185L0.565,-0.5185L0.431,-0.334C0.4247,-0.3253 0.4178,-0.3177 0.4103,-0.311C0.4027,-0.3043 0.3947,-0.2983 0.386,-0.293C0.401,-0.2817 0.414,-0.2667 0.425,-0.248L0.571,-0L0.431,-0C0.4193,-0 0.4093,-0.0019 0.4007,-0.0057C0.3922,-0.0096 0.3853,-0.0163 0.38,-0.026L0.282,-0.2095C0.2773,-0.2178 0.2725,-0.2233 0.2675,-0.2258C0.2625,-0.2282 0.255,-0.2295 0.245,-0.2295L0.215,-0.2295L0.215,-0L0.06,-0L0.06,-0.7485L0.215,-0.7485Z" style="fill:rgb(7,82,196);fill-rule:nonzero;"/>
            </g>
        </g>
        <g>
            <g transform="matrix(1007.129629,0,0,1007.129629,1952.032371,1630.671506)">
                <path d="M0.245,-0.506C0.2667,-0.506 0.2868,-0.5033 0.3053,-0.498C0.3238,-0.4927 0.3403,-0.4852 0.355,-0.4755L0.4825,-0.4755L0.4825,-0.459C0.4825,-0.4507 0.4778,-0.4462 0.4685,-0.4455L0.393,-0.44C0.4023,-0.4273 0.4095,-0.4131 0.4145,-0.3972C0.4195,-0.3814 0.422,-0.3645 0.422,-0.3465C0.422,-0.3225 0.4177,-0.3008 0.409,-0.2812C0.4003,-0.2617 0.3883,-0.2451 0.3728,-0.2313C0.3573,-0.2174 0.3387,-0.2067 0.317,-0.199C0.2953,-0.1913 0.2713,-0.1875 0.245,-0.1875C0.2163,-0.1875 0.1903,-0.1918 0.167,-0.2005C0.153,-0.1925 0.142,-0.183 0.134,-0.172C0.126,-0.161 0.122,-0.1503 0.122,-0.14C0.122,-0.1257 0.127,-0.1147 0.137,-0.107C0.147,-0.0993 0.1603,-0.0938 0.1767,-0.0902C0.1933,-0.0867 0.2121,-0.0845 0.2333,-0.0835C0.2544,-0.0825 0.2759,-0.0814 0.2978,-0.0803C0.3196,-0.0791 0.3411,-0.077 0.3623,-0.074C0.3834,-0.071 0.4022,-0.0658 0.4188,-0.0583C0.4352,-0.0507 0.4485,-0.0403 0.4585,-0.0267C0.4685,-0.0132 0.4735,0.0047 0.4735,0.027C0.4735,0.0477 0.4683,0.0675 0.458,0.0865C0.4477,0.1055 0.4327,0.1223 0.4133,0.137C0.3937,0.1517 0.3702,0.1634 0.3425,0.1723C0.3148,0.1811 0.2838,0.1855 0.2495,0.1855C0.2145,0.1855 0.1838,0.1819 0.1575,0.1748C0.1312,0.1676 0.1091,0.1579 0.0912,0.1457C0.0734,0.1336 0.06,0.1195 0.051,0.1035C0.042,0.0875 0.0375,0.0705 0.0375,0.0525C0.0375,0.0262 0.0462,0.0035 0.0635,-0.0155C0.0808,-0.0345 0.1047,-0.0492 0.135,-0.0595C0.1183,-0.0652 0.1051,-0.0733 0.0953,-0.084C0.0854,-0.0947 0.0805,-0.1095 0.0805,-0.1285C0.0805,-0.1355 0.0818,-0.1428 0.0845,-0.1505C0.0872,-0.1582 0.0912,-0.1658 0.0965,-0.1733C0.1018,-0.1807 0.1082,-0.1878 0.1158,-0.1945C0.1233,-0.2012 0.132,-0.2072 0.142,-0.2125C0.1183,-0.2262 0.0999,-0.2443 0.0868,-0.267C0.0736,-0.2897 0.067,-0.3162 0.067,-0.3465C0.067,-0.3705 0.0712,-0.3922 0.0798,-0.4118C0.0882,-0.4312 0.1003,-0.448 0.1158,-0.462C0.1313,-0.476 0.15,-0.4868 0.172,-0.4945C0.194,-0.5022 0.2183,-0.506 0.245,-0.506ZM0.4295,0.0335C0.4295,0.0178 0.4254,0.0053 0.4173,-0.0043C0.4091,-0.0137 0.3982,-0.0212 0.3845,-0.0265C0.3708,-0.0318 0.3551,-0.0356 0.3372,-0.0377C0.3194,-0.0399 0.3008,-0.0415 0.2812,-0.0425C0.2617,-0.0435 0.2422,-0.0445 0.2225,-0.0455C0.2028,-0.0465 0.1845,-0.0485 0.1675,-0.0515C0.1548,-0.0465 0.1431,-0.0408 0.1323,-0.0343C0.1214,-0.0278 0.1122,-0.0204 0.1045,-0.0123C0.0968,-0.0041 0.0908,0.0049 0.0865,0.0148C0.0822,0.0246 0.08,0.0353 0.08,0.047C0.08,0.0617 0.0837,0.0752 0.0912,0.0878C0.0988,0.1003 0.1098,0.1111 0.1242,0.1202C0.1388,0.1294 0.1565,0.1367 0.1775,0.142C0.1985,0.1473 0.2227,0.15 0.25,0.15C0.2753,0.15 0.2989,0.1472 0.3207,0.1415C0.3426,0.1358 0.3616,0.1278 0.3778,0.1175C0.3939,0.1072 0.4066,0.0948 0.4158,0.0805C0.4249,0.0662 0.4295,0.0505 0.4295,0.0335ZM0.245,-0.22C0.2663,-0.22 0.2853,-0.2231 0.302,-0.2293C0.3187,-0.2354 0.3327,-0.244 0.344,-0.255C0.3553,-0.266 0.3639,-0.2792 0.3698,-0.2945C0.3756,-0.3098 0.3785,-0.3268 0.3785,-0.3455C0.3785,-0.3642 0.3755,-0.3813 0.3695,-0.3967C0.3635,-0.4123 0.3547,-0.4255 0.3432,-0.4365C0.3317,-0.4475 0.3178,-0.456 0.3013,-0.462C0.2848,-0.468 0.266,-0.471 0.245,-0.471C0.224,-0.471 0.2052,-0.468 0.1885,-0.462C0.1718,-0.456 0.1578,-0.4475 0.1462,-0.4365C0.1348,-0.4255 0.126,-0.4123 0.12,-0.3967C0.114,-0.3813 0.111,-0.3642 0.111,-0.3455C0.111,-0.3268 0.114,-0.3098 0.12,-0.2945C0.126,-0.2792 0.1348,-0.266 0.1462,-0.255C0.1578,-0.244 0.1718,-0.2354 0.1885,-0.2293C0.2052,-0.2231 0.224,-0.22 0.245,-0.22Z" style="fill:rgb(7,82,196);fill-rule:nonzero;"/>
            </g>
            <g transform="matrix(1007.129629,0,0,1007.129629,2460.129269,1630.671506)">
                <path d="M0.081,-0L0.081,-0.4975L0.106,-0.4975C0.1117,-0.4975 0.1158,-0.4963 0.1183,-0.494C0.1208,-0.4917 0.1222,-0.4877 0.1225,-0.482L0.1265,-0.377C0.1425,-0.4173 0.1638,-0.4489 0.1905,-0.4718C0.2172,-0.4946 0.25,-0.506 0.289,-0.506C0.304,-0.506 0.3178,-0.5044 0.3305,-0.5012C0.3432,-0.4981 0.3552,-0.4935 0.3665,-0.4875L0.36,-0.4545C0.359,-0.4492 0.3557,-0.4465 0.35,-0.4465C0.348,-0.4465 0.3452,-0.4472 0.3415,-0.4485C0.3378,-0.4498 0.3332,-0.4513 0.3277,-0.453C0.3222,-0.4547 0.3155,-0.4562 0.3075,-0.4575C0.2995,-0.4588 0.2903,-0.4595 0.28,-0.4595C0.2423,-0.4595 0.2114,-0.4478 0.1872,-0.4245C0.1631,-0.4012 0.1435,-0.3675 0.1285,-0.3235L0.1285,-0L0.081,-0Z" style="fill:rgb(7,82,196);fill-rule:nonzero;"/>
            </g>
            <g transform="matrix(1007.129629,0,0,1007.129629,2834.78149,1630.671506)">
                <path d="M0.3985,-0C0.3885,-0 0.3823,-0.0047 0.38,-0.014L0.373,-0.0775C0.3593,-0.0642 0.3458,-0.0522 0.3322,-0.0415C0.3188,-0.0308 0.3047,-0.0218 0.29,-0.0145C0.2753,-0.0072 0.2595,-0.0016 0.2425,0.0023C0.2255,0.0061 0.2068,0.008 0.1865,0.008C0.1695,0.008 0.153,0.0055 0.137,0.0005C0.121,-0.0045 0.1068,-0.0122 0.0945,-0.0225C0.0822,-0.0328 0.0722,-0.0461 0.0648,-0.0622C0.0573,-0.0784 0.0535,-0.0978 0.0535,-0.1205C0.0535,-0.1415 0.0595,-0.161 0.0715,-0.179C0.0835,-0.197 0.1022,-0.2127 0.1278,-0.226C0.1532,-0.2393 0.1861,-0.25 0.2263,-0.258C0.2664,-0.266 0.3147,-0.2707 0.371,-0.272L0.371,-0.324C0.371,-0.37 0.3611,-0.4054 0.3412,-0.4303C0.3214,-0.4551 0.292,-0.4675 0.253,-0.4675C0.229,-0.4675 0.2086,-0.4642 0.1918,-0.4575C0.1749,-0.4508 0.1607,-0.4435 0.149,-0.4355C0.1373,-0.4275 0.1278,-0.4202 0.1205,-0.4135C0.1132,-0.4068 0.107,-0.4035 0.102,-0.4035C0.0953,-0.4035 0.0903,-0.4065 0.087,-0.4125L0.0785,-0.427C0.1045,-0.453 0.1318,-0.4727 0.1605,-0.486C0.1892,-0.4993 0.2217,-0.506 0.258,-0.506C0.2847,-0.506 0.308,-0.5018 0.328,-0.4933C0.348,-0.4848 0.3646,-0.4726 0.3778,-0.4567C0.3909,-0.4409 0.4008,-0.4218 0.4075,-0.3992C0.4142,-0.3767 0.4175,-0.3517 0.4175,-0.324L0.4175,-0L0.3985,-0ZM0.1985,-0.0265C0.2178,-0.0265 0.2356,-0.0286 0.2518,-0.0328C0.2679,-0.0369 0.2829,-0.0428 0.2968,-0.0503C0.3106,-0.0578 0.3235,-0.0667 0.3355,-0.077C0.3475,-0.0873 0.3593,-0.0985 0.371,-0.1105L0.371,-0.24C0.3237,-0.2387 0.2829,-0.2351 0.2487,-0.2293C0.2146,-0.2234 0.1864,-0.2155 0.1643,-0.2055C0.1421,-0.1955 0.1258,-0.1836 0.1153,-0.1698C0.1048,-0.1559 0.0995,-0.1402 0.0995,-0.1225C0.0995,-0.1058 0.1023,-0.0914 0.1077,-0.0793C0.1133,-0.0671 0.1205,-0.0571 0.1295,-0.0493C0.1385,-0.0414 0.149,-0.0357 0.161,-0.032C0.173,-0.0283 0.1855,-0.0265 0.1985,-0.0265Z" style="fill:rgb(7,82,196);fill-rule:nonzero;"/>
            </g>
            <g transform="matrix(1007.129629,0,0,1007.129629,3324.750055,1630.671506)">
                <path d="M0.081,0.176L0.081,-0.4975L0.107,-0.4975C0.1113,-0.4975 0.1148,-0.4966 0.1175,-0.4948C0.1202,-0.4929 0.1217,-0.4897 0.122,-0.485L0.1265,-0.408C0.1485,-0.438 0.1743,-0.4618 0.2038,-0.4795C0.2332,-0.4972 0.2663,-0.506 0.303,-0.506C0.3643,-0.506 0.412,-0.4848 0.446,-0.4425C0.48,-0.4002 0.497,-0.3367 0.497,-0.252C0.497,-0.2157 0.4923,-0.1817 0.4828,-0.1502C0.4733,-0.1188 0.4593,-0.0914 0.441,-0.0683C0.4227,-0.0451 0.4001,-0.0268 0.3733,-0.0135C0.3464,-0.0002 0.3155,0.0065 0.2805,0.0065C0.2465,0.0065 0.2172,0.0003 0.1925,-0.012C0.1678,-0.0243 0.1465,-0.0427 0.1285,-0.067L0.1285,0.176L0.081,0.176ZM0.2895,-0.4675C0.2565,-0.4675 0.2266,-0.4589 0.1998,-0.4418C0.1729,-0.4246 0.1492,-0.4007 0.1285,-0.37L0.1285,-0.109C0.1475,-0.0803 0.1686,-0.0602 0.1918,-0.0485C0.2149,-0.0368 0.2413,-0.031 0.271,-0.031C0.3003,-0.031 0.326,-0.0363 0.348,-0.047C0.37,-0.0577 0.3884,-0.0727 0.4032,-0.0922C0.4181,-0.1118 0.4292,-0.1351 0.4368,-0.1623C0.4443,-0.1894 0.448,-0.2193 0.448,-0.252C0.448,-0.326 0.4344,-0.3804 0.4073,-0.4153C0.3801,-0.4501 0.3408,-0.4675 0.2895,-0.4675Z" style="fill:rgb(7,82,196);fill-rule:nonzero;"/>
            </g>
            <g transform="matrix(1007.129629,0,0,1007.129629,3863.564406,1630.671506)">
                <path d="M0.081,-0L0.081,-0.7275L0.1285,-0.7275L0.1285,-0.4125C0.1515,-0.4408 0.1777,-0.4634 0.2073,-0.4803C0.2368,-0.4971 0.2698,-0.5055 0.3065,-0.5055C0.3338,-0.5055 0.3579,-0.5012 0.3788,-0.4925C0.3996,-0.4838 0.4168,-0.4713 0.4305,-0.455C0.4442,-0.4387 0.4545,-0.419 0.4615,-0.396C0.4685,-0.373 0.472,-0.347 0.472,-0.318L0.472,-0L0.4245,-0L0.4245,-0.318C0.4245,-0.3647 0.4138,-0.4013 0.3925,-0.4278C0.3712,-0.4543 0.3385,-0.4675 0.2945,-0.4675C0.2618,-0.4675 0.2315,-0.4591 0.2035,-0.4423C0.1755,-0.4254 0.1505,-0.4023 0.1285,-0.373L0.1285,-0L0.081,-0Z" style="fill:rgb(7,82,196);fill-rule:nonzero;"/>
            </g>
            <g transform="matrix(1007.129629,0,0,1007.129629,4408.421535,1630.671506)">
                <path d="M0.1425,-0.4975L0.1425,-0L0.095,-0L0.095,-0.4975L0.1425,-0.4975ZM0.1635,-0.669C0.1635,-0.663 0.1623,-0.6574 0.1598,-0.6522C0.1573,-0.6471 0.154,-0.6425 0.15,-0.6385C0.146,-0.6345 0.1413,-0.6313 0.136,-0.629C0.1307,-0.6267 0.125,-0.6255 0.119,-0.6255C0.113,-0.6255 0.1073,-0.6267 0.102,-0.629C0.0967,-0.6313 0.092,-0.6345 0.088,-0.6385C0.084,-0.6425 0.0808,-0.6471 0.0785,-0.6522C0.0762,-0.6574 0.075,-0.663 0.075,-0.669C0.075,-0.675 0.0762,-0.6808 0.0785,-0.6863C0.0808,-0.6917 0.084,-0.6965 0.088,-0.7005C0.092,-0.7045 0.0967,-0.7077 0.102,-0.71C0.1073,-0.7123 0.113,-0.7135 0.119,-0.7135C0.125,-0.7135 0.1307,-0.7123 0.136,-0.71C0.1413,-0.7077 0.146,-0.7045 0.15,-0.7005C0.154,-0.6965 0.1573,-0.6917 0.1598,-0.6863C0.1623,-0.6808 0.1635,-0.675 0.1635,-0.669Z" style="fill:rgb(7,82,196);fill-rule:nonzero;"/>
            </g>
            <g transform="matrix(1007.129629,0,0,1007.129629,4647.614822,1630.671506)">
                <path d="M0.4085,-0.431C0.4068,-0.4293 0.4053,-0.4279 0.4037,-0.4268C0.4022,-0.4256 0.4002,-0.425 0.3975,-0.425C0.3942,-0.425 0.3896,-0.4272 0.3838,-0.4318C0.3779,-0.4363 0.3702,-0.4412 0.3605,-0.4465C0.3508,-0.4518 0.3388,-0.4567 0.3242,-0.4612C0.3097,-0.4658 0.2922,-0.468 0.2715,-0.468C0.2428,-0.468 0.2174,-0.4629 0.1953,-0.4527C0.1731,-0.4426 0.1544,-0.428 0.1393,-0.409C0.1241,-0.39 0.1125,-0.367 0.1045,-0.34C0.0965,-0.313 0.0925,-0.2827 0.0925,-0.249C0.0925,-0.214 0.0966,-0.183 0.1047,-0.156C0.1129,-0.129 0.1245,-0.1063 0.1395,-0.0878C0.1545,-0.0692 0.1727,-0.0552 0.194,-0.0455C0.2153,-0.0358 0.239,-0.031 0.265,-0.031C0.289,-0.031 0.3091,-0.0338 0.3252,-0.0395C0.3414,-0.0452 0.3548,-0.0513 0.3653,-0.058C0.3758,-0.0647 0.3841,-0.0708 0.3902,-0.0765C0.3964,-0.0822 0.4013,-0.085 0.405,-0.085C0.4093,-0.085 0.4127,-0.0833 0.415,-0.08L0.428,-0.064C0.4203,-0.054 0.4107,-0.0447 0.399,-0.036C0.3873,-0.0273 0.3742,-0.0198 0.3595,-0.0135C0.3448,-0.0072 0.3289,-0.0022 0.3118,0.0013C0.2946,0.0047 0.2767,0.0065 0.258,0.0065C0.2263,0.0065 0.1974,0.0008 0.1713,-0.0108C0.1451,-0.0223 0.1226,-0.0389 0.1038,-0.0607C0.0849,-0.0826 0.0702,-0.1093 0.0598,-0.141C0.0492,-0.1727 0.044,-0.2087 0.044,-0.249C0.044,-0.287 0.049,-0.3217 0.059,-0.353C0.069,-0.3843 0.0836,-0.4113 0.1028,-0.434C0.1219,-0.4567 0.1454,-0.4743 0.1733,-0.4868C0.2011,-0.4993 0.233,-0.5055 0.269,-0.5055C0.3013,-0.5055 0.3301,-0.5003 0.3553,-0.49C0.3804,-0.4797 0.4023,-0.4657 0.421,-0.448L0.4085,-0.431Z" style="fill:rgb(7,82,196);fill-rule:nonzero;"/>
            </g>
            <g transform="matrix(1007.129629,0,0,1007.129629,5105.858803,1630.671506)">
                <path d="M0.355,-0.4355C0.3527,-0.4308 0.349,-0.4285 0.344,-0.4285C0.3403,-0.4285 0.3356,-0.4306 0.3297,-0.4348C0.3239,-0.4389 0.3162,-0.4436 0.3068,-0.4487C0.2973,-0.4539 0.2856,-0.4586 0.2717,-0.4627C0.2579,-0.4669 0.241,-0.469 0.221,-0.469C0.203,-0.469 0.1866,-0.4664 0.1718,-0.4613C0.1569,-0.4561 0.1442,-0.4492 0.1338,-0.4406C0.1233,-0.4319 0.1151,-0.4219 0.1092,-0.4104C0.1034,-0.3989 0.1005,-0.3869 0.1005,-0.3743C0.1005,-0.3586 0.1045,-0.3457 0.1125,-0.3354C0.1205,-0.325 0.131,-0.3162 0.144,-0.3089C0.157,-0.3016 0.1717,-0.2953 0.1883,-0.29C0.2047,-0.2847 0.2217,-0.2793 0.239,-0.274C0.2563,-0.2687 0.2732,-0.2627 0.2898,-0.2562C0.3062,-0.2497 0.321,-0.2417 0.334,-0.232C0.347,-0.2223 0.3575,-0.2105 0.3655,-0.1965C0.3735,-0.1825 0.3775,-0.1655 0.3775,-0.1455C0.3775,-0.1238 0.3736,-0.1037 0.3658,-0.085C0.3579,-0.0663 0.3466,-0.0502 0.3317,-0.0365C0.3169,-0.0228 0.2987,-0.012 0.277,-0.004C0.2553,0.004 0.2307,0.008 0.203,0.008C0.168,0.008 0.1378,0.0024 0.1125,-0.0088C0.0872,-0.0199 0.0645,-0.0345 0.0445,-0.0525L0.056,-0.0695C0.0577,-0.0722 0.0595,-0.0742 0.0615,-0.0755C0.0635,-0.0768 0.0663,-0.0775 0.07,-0.0775C0.0743,-0.0775 0.0797,-0.0748 0.086,-0.0695C0.0923,-0.0642 0.1006,-0.0584 0.1108,-0.0522C0.1209,-0.0461 0.1336,-0.0403 0.1487,-0.035C0.1639,-0.0297 0.1827,-0.027 0.205,-0.027C0.226,-0.027 0.2445,-0.0299 0.2605,-0.0358C0.2765,-0.0416 0.2898,-0.0495 0.3005,-0.0595C0.3112,-0.0695 0.3192,-0.0813 0.3247,-0.0948C0.3302,-0.1082 0.333,-0.1225 0.333,-0.1375C0.333,-0.1542 0.329,-0.168 0.321,-0.179C0.313,-0.19 0.3025,-0.1993 0.2895,-0.207C0.2765,-0.2147 0.2617,-0.2212 0.2452,-0.2265C0.2288,-0.2318 0.2117,-0.2372 0.1943,-0.2425C0.1767,-0.2478 0.1598,-0.2537 0.1433,-0.26C0.1268,-0.2663 0.112,-0.2743 0.099,-0.284C0.086,-0.2937 0.0755,-0.3054 0.0675,-0.3193C0.0595,-0.3331 0.0555,-0.3503 0.0555,-0.371C0.0555,-0.3887 0.0593,-0.4057 0.067,-0.422C0.0747,-0.4383 0.0856,-0.4527 0.0998,-0.465C0.1139,-0.4773 0.1312,-0.4872 0.1515,-0.4945C0.1718,-0.5018 0.1947,-0.5055 0.22,-0.5055C0.2503,-0.5055 0.2772,-0.5011 0.3008,-0.4923C0.3242,-0.4835 0.3458,-0.4701 0.3655,-0.452L0.355,-0.4355Z" style="fill:rgb(7,82,196);fill-rule:nonzero;"/>
            </g>
        </g>
    </g>
</svg>
